HIERARCHY
ROOT hip
{
	OFFSET 0.000000 0.000000 0.000000 
	CHANNELS 6 Xposition Yposition Zposition Zrotation Xrotation Yrotation
	JOINT abdomen
	{
		OFFSET 0.000000 3.402643 0.000000 
		CHANNELS 3 Zrotation Xrotation Yrotation
		JOINT chest
		{
			OFFSET 0.000000 8.438565 -0.680529 
			CHANNELS 3 Zrotation Xrotation Yrotation
			JOINT neck
			{
				OFFSET 0.000000 10.207942 -0.272212 
				CHANNELS 3 Zrotation Xrotation Yrotation
				JOINT head
				{
					OFFSET 0.000000 3.130431 0.000000 
					CHANNELS 3 Zrotation Xrotation Yrotation
					End Site
					{
						OFFSET 0.000000 3.130435 0.000000 
					}
				}
			}
			JOINT lCollar
			{
				OFFSET 3.470700 6.669187 -0.816635 
				CHANNELS 3 Zrotation Xrotation Yrotation
				JOINT lShldr
				{
					OFFSET 3.198488 0.000000 0.000000 
					CHANNELS 3 Zrotation Xrotation Yrotation
					JOINT lForeArm
					{
						OFFSET 10.139888 0.000000 0.000000 
						CHANNELS 3 Zrotation Xrotation Yrotation
						JOINT lHand
						{
							OFFSET 8.370511 0.000000 0.000000 
							CHANNELS 3 Zrotation Xrotation Yrotation
							End Site
							{
								OFFSET 4.083176 0.000000 0.000000 
							}
						}
					}
				}
			}
			JOINT rCollar
			{
				OFFSET -3.470700 6.669187 -0.816635 
				CHANNELS 3 Zrotation Xrotation Yrotation
				JOINT rShldr
				{
					OFFSET -3.198488 0.000000 0.000000 
					CHANNELS 3 Zrotation Xrotation Yrotation
					JOINT rForeArm
					{
						OFFSET -10.139888 0.000000 0.000000 
						CHANNELS 3 Zrotation Xrotation Yrotation
						JOINT rHand
						{
							OFFSET -8.370511 0.000000 0.000000 
							CHANNELS 3 Zrotation Xrotation Yrotation
							End Site
							{
								OFFSET -4.083176 0.000000 0.000000 
							}
						}
					}
				}
			}
		}
	}
	JOINT lThigh
	{
		OFFSET 5.308129 -1.633274 1.361059 
		CHANNELS 3 Zrotation Xrotation Yrotation
		JOINT lShin
		{
			OFFSET -2.041588 -20.007561 0.000000 
			CHANNELS 3 Zrotation Xrotation Yrotation
			JOINT lFoot
			{
				OFFSET 0.000000 -19.190928 -1.224953 
				CHANNELS 3 Zrotation Xrotation Yrotation
				End Site
				{
					OFFSET 0.000000 -2.449906 4.627600 
				}
			}
		}
	}
	JOINT rThigh
	{
		OFFSET -5.308129 -1.633274 1.361059 
		CHANNELS 3 Zrotation Xrotation Yrotation
		JOINT rShin
		{
			OFFSET 2.041588 -20.007561 0.000000 
			CHANNELS 3 Zrotation Xrotation Yrotation
			JOINT rFoot
			{
				OFFSET 0.000000 -19.190928 -1.224953 
				CHANNELS 3 Zrotation Xrotation Yrotation
				End Site
				{
					OFFSET 0.000000 -2.449906 4.627600 
				}
			}
		}
	}
}
MOTION
Frames: 13
Frame Time: 0.016667
-0.485438 43.516403 -1.334710 -2.783210 1.103520 -6.992600 -2.439790 15.939500 0.751653 -0.798450 -22.695299 -0.021181 -8.035360 -5.493640 5.785900 0.734551 3.634480 3.064820 -1.998780 -0.069785 1.998780 -87.214798 -4.683440 7.635650 1.025080 -1.271880 -27.696400 -0.039286 43.169998 -0.007712 1.998780 -0.069785 -1.998780 86.778397 8.637250 -2.880230 0.464320 0.080375 23.513201 -0.034317 65.927902 0.110436 2.606860 -9.006099 0.858335 3.020990 27.772699 0.736946 -0.922563 -13.495300 -3.552700 2.122921 -6.738280 3.281800 -2.977740 22.311399 -0.637446 0.834422 -15.996900 2.373820 
-0.501443 43.517506 -1.275960 -2.363280 0.986328 -6.904670 -2.361320 16.106600 0.723861 -0.948648 -22.666000 -0.031770 -8.022250 -5.858000 5.834940 0.666263 3.468390 3.098890 -1.998780 -0.069785 1.998780 -87.080399 -6.692410 7.903320 0.998709 -1.253250 -26.476700 -0.035664 44.419998 -0.012776 1.998780 -0.069785 -1.998780 86.661301 7.179210 -3.299710 0.446958 0.075026 22.996000 -0.043821 66.894997 0.121124 2.116640 -8.866598 0.709015 3.053310 27.709400 0.703209 -0.962872 -13.430300 -3.598690 1.662360 -6.895470 2.969810 -3.092680 23.006001 -0.565660 0.916554 -16.532499 2.480650 
-0.528855 43.506203 -1.263580 -2.675780 0.986328 -6.807050 -2.501930 16.026400 0.792935 -0.877520 -22.705099 0.031702 -7.735920 -6.943020 5.257610 0.715828 2.921570 2.841530 -1.998780 -0.069785 1.998780 -86.776100 -8.835370 8.146430 0.970005 -1.233910 -25.169201 -0.041523 45.855999 -0.004853 1.998780 -0.069785 -1.998780 86.588600 5.684370 -3.718300 0.426917 0.069065 22.400700 -0.051483 67.616898 0.129669 2.430480 -8.979798 0.518735 3.101710 28.098101 0.683165 -1.000620 -13.556700 -3.649890 2.069750 -6.716540 3.150070 -3.075070 22.721800 -0.569285 0.837266 -16.299101 2.248910 
-0.576277 43.498505 -1.240300 -3.271490 0.957031 -6.855940 -2.630300 15.829100 0.896926 -0.678942 -22.822201 0.179962 -7.510040 -7.760180 5.175150 0.706532 2.521170 2.812900 -1.998780 -0.069785 1.998780 -86.337799 -11.116200 8.586880 0.939552 -1.214410 -23.803101 -0.037092 47.340000 -0.011110 1.998780 -0.069785 -1.998780 86.496902 4.228120 -4.274660 0.406816 0.063313 21.805401 -0.060031 68.368896 0.139131 3.089150 -9.098799 0.381198 3.153170 28.663700 0.659209 -1.015990 -13.907800 -3.703450 2.815260 -6.308700 3.616270 -3.014530 22.187401 -0.608445 0.696654 -16.034401 1.752540 
-0.623650 43.493706 -1.242320 -3.437500 0.869141 -6.787610 -2.628330 15.712000 0.945215 -0.601251 -22.861099 0.317678 -7.170950 -8.411970 5.298850 0.726408 2.237990 2.879870 -1.998780 -0.069785 1.998780 -85.856102 -14.097700 8.751560 0.905083 -1.193550 -22.280899 -0.030645 49.303001 -0.019940 1.998780 -0.069785 -1.998780 86.391502 2.686970 -4.674150 0.386655 0.057769 21.210100 -0.095151 69.169899 0.177358 3.289030 -9.043598 0.301182 3.154600 28.771601 0.651269 -1.007750 -14.009000 -3.618200 3.109680 -6.164370 4.012200 -3.015380 22.087500 -0.585773 0.592115 -15.770800 1.324620 
-0.637717 43.478905 -1.184970 -2.998050 0.703125 -6.348110 -2.679710 15.760000 1.002280 -0.777920 -22.900000 0.370711 -6.760160 -8.618290 5.316950 0.833973 2.130680 2.872350 -1.998780 -0.069785 1.998780 -85.268600 -17.287800 8.995630 0.868261 -1.172610 -20.680599 -0.021093 51.861000 -0.032555 1.998780 -0.069785 -1.998780 86.298103 0.737591 -5.202420 0.362454 0.051410 20.497700 -0.114697 70.468903 0.198362 2.748250 -8.853198 0.042907 3.151740 28.692900 0.647756 -1.066570 -13.923300 -3.703840 2.599091 -6.065160 3.479400 -3.049250 22.419300 -0.585514 0.591705 -16.444000 1.371010 
-0.654175 43.467606 -1.158690 -3.037110 0.634765 -5.977030 -2.853530 15.864600 1.131640 -0.761161 -22.889799 0.529567 -6.090820 -8.798400 5.395890 1.068450 2.043000 2.885250 -1.998780 -0.069785 1.998780 -84.684700 -20.384001 9.136160 0.834773 -1.154720 -19.246300 -0.011258 54.146999 -0.045086 1.998780 -0.069785 -1.998780 86.140503 -0.624577 -5.609320 0.348163 0.047806 20.077999 -0.121924 70.907898 0.206081 2.761740 -8.755999 -0.116137 3.162730 28.661600 0.627624 -1.109010 -13.851700 -3.859330 2.618460 -6.109910 3.041950 -3.071310 22.752199 -0.577745 0.537443 -16.425301 1.242090 
-0.703092 43.454605 -1.142470 -2.812500 0.439453 -5.664510 -2.740710 15.778500 1.092080 -0.833203 -22.919100 0.519070 -5.968470 -8.899970 5.470220 1.048960 1.984400 2.915910 -1.998780 -0.069785 1.998780 -84.102402 -22.823601 9.435690 0.809888 -1.142110 -18.192499 -0.007521 54.938000 -0.049748 1.998780 -0.069785 -1.998780 86.092003 -1.771330 -5.745750 0.324842 0.042163 19.394899 -0.143736 72.118896 0.229245 2.523520 -8.615639 -0.256775 3.163230 28.751101 0.650348 -1.140520 -13.878500 -3.944420 2.417600 -5.893290 2.907600 -3.097960 22.926500 -0.569909 0.363365 -15.586100 0.740591 
-0.748014 43.457203 -1.159980 -3.144530 0.498047 -5.264170 -2.901590 15.727000 1.197560 -0.696766 -23.006599 0.657187 -5.798170 -9.115150 5.281370 1.107660 1.837960 2.814150 -1.998780 -0.069785 1.998780 -83.619598 -24.450899 9.712230 0.793170 -1.133960 -17.489901 -0.002646 55.914001 -0.055760 1.998780 -0.069785 -1.998780 86.077301 -3.685040 -5.867170 0.302792 0.037096 18.750700 -0.187975 74.149803 0.275744 2.919730 -8.804499 -0.431282 3.181350 28.935499 0.622810 -1.121150 -13.875300 -3.882690 2.885870 -5.919530 2.949860 -3.080210 22.859800 -0.578286 0.233810 -15.357200 0.315559 
-0.799828 43.448505 -1.159710 -2.919920 0.302734 -4.795400 -2.798590 15.621400 1.161480 -0.735795 -23.026100 0.657270 -5.510270 -9.104950 5.084080 1.263890 1.808760 2.705560 -1.998780 -0.069785 1.998780 -83.348999 -24.975800 9.968420 0.790609 -1.132740 -17.382601 -0.002140 56.012001 -0.056378 1.998780 -0.069785 -1.998780 86.056602 -4.637000 -5.882320 0.290742 0.034438 18.399300 -0.209306 74.970802 0.297983 2.697130 -8.714858 -0.635053 3.170720 29.054800 0.627393 -1.172120 -13.879700 -3.967850 2.733030 -5.692390 2.858750 -3.094790 22.877300 -0.564232 0.134479 -15.351600 -0.029808 
-0.858195 43.427105 -1.154430 -3.095700 0.087891 -4.404820 -2.716760 15.564000 1.113240 -0.617751 -22.997000 0.604150 -5.235710 -9.069560 4.967610 1.439630 1.808830 2.634670 -1.998780 -0.069785 1.998780 -83.404999 -23.785999 10.294100 0.806181 -1.140280 -18.036301 -0.011796 54.028999 -0.044410 1.998780 -0.069785 -1.998780 86.014099 -4.676590 -5.755210 0.286724 0.033567 18.282301 -0.215293 75.185799 0.304208 2.884490 -8.586019 -0.858330 3.207330 29.286400 0.590900 -1.215600 -13.929200 -4.076900 3.003450 -5.414150 2.835500 -3.109390 22.884899 -0.550820 0.018174 -15.374600 -0.511237 
-0.886329 43.411003 -1.166560 -3.125000 -0.009765 -3.837890 -2.805890 15.464900 1.086150 -0.641483 -23.016800 0.508822 -5.385240 -8.913520 4.788290 1.420080 1.877180 2.548150 -1.998780 -0.069785 1.998780 -83.616600 -20.956200 10.667700 0.838209 -1.156500 -19.392599 -0.025091 50.835999 -0.027336 1.998780 -0.069785 -1.998780 86.052597 -4.122900 -5.722860 0.304132 0.037396 18.789801 -0.193846 74.384804 0.281874 2.884250 -8.590798 -1.257620 3.211240 29.394400 0.591889 -1.282960 -13.810300 -4.266490 2.996511 -5.296960 2.310610 -3.108740 22.894800 -0.550316 -0.004028 -15.444100 -0.454545 
-0.897052 43.406204 -1.194560 -2.675780 -0.048828 -3.037110 -2.786400 15.504300 0.981580 -0.827170 -22.978300 0.286117 -5.699090 -8.928310 4.511190 1.361500 1.877160 2.425290 -1.998780 -0.069785 1.998780 -84.045799 -17.867500 10.769900 0.877297 -1.177620 -21.070999 -0.036018 47.681999 -0.012600 1.998780 -0.069785 -1.998780 86.058098 -2.685100 -5.551120 0.334512 0.044466 19.677900 -0.156630 72.763802 0.242858 2.329880 -8.622448 -1.824490 3.190880 29.249599 0.617906 -1.338020 -13.628800 -4.415050 2.461121 -5.443640 1.440920 -3.135980 23.236900 -0.540420 -0.052874 -15.707500 -0.450902 
